name 900006_13ik_lsw.mot
datacolumns 165
datarows 4
range 0.35000000 0.37500000
cursor 1.0 1.0 0.0
keys m_key
wrap
enforce_loops no
enforce_constraints no
calc_derivatives 0.008333
event_color 1.000000 0.000000 1.000000
endheader

                time	          calcn_r_tx	          calcn_r_ty	          calcn_r_tz	          calcn_r_r1	          calcn_r_r2	          calcn_r_r3	          calcn_l_tx	          calcn_l_ty	          calcn_l_tz	          calcn_l_r1	          calcn_l_r2	          calcn_l_r3	           pelvis_tz	           pelvis_tx	           pelvis_ty	         pelvis_tilt	         pelvis_list	     pelvis_rotation	       hip_flexion_r	     hip_adduction_r	      hip_rotation_r	        knee_angle_r	       ankle_angle_r	    subtalar_angle_r	         mtp_angle_r	       hip_flexion_l	     hip_adduction_l	      hip_rotation_l	        knee_angle_l	       ankle_angle_l	    subtalar_angle_l	         mtp_angle_l	    lumbar_extension	      lumbar_bending	     lumbar_rotation	     ground_force_px	     ground_force_py	     ground_force_pz	     ground_force_vx	     ground_force_vy	     ground_force_vz	     ground_force_px	     ground_force_py	     ground_force_pz	     ground_force_vx	     ground_force_vy	     ground_force_vz	     ground_torque_x	     ground_torque_y	     ground_torque_z	     ground_torque_x	     ground_torque_y	     ground_torque_z	           midhip_px	           midhip_py	           midhip_pz	            hip_r_px	            hip_r_py	            hip_r_pz	            hip_l_px	            hip_l_py	            hip_l_pz	           knee_r_px	           knee_r_py	           knee_r_pz	           knee_l_px	           knee_l_py	           knee_l_pz	          ankle_r_px	          ankle_r_py	          ankle_r_pz	          ankle_l_px	          ankle_l_py	          ankle_l_pz	          midasis_px	          midasis_py	          midasis_pz	           asis_r_px	           asis_r_py	           asis_r_pz	           asis_l_px	           asis_l_py	           asis_l_pz	           psis_r_px	           psis_r_py	           psis_r_pz	           psis_l_px	           psis_l_py	           psis_l_pz	     epicondLat_r_px	     epicondLat_r_py	     epicondLat_r_pz	     epicondLat_l_px	     epicondLat_l_py	     epicondLat_l_pz	     epicondMed_r_px	     epicondMed_r_py	     epicondMed_r_pz	     epicondMed_l_px	     epicondMed_l_py	     epicondMed_l_pz	   malleolusLat_r_px	   malleolusLat_r_py	   malleolusLat_r_pz	   malleolusLat_l_px	   malleolusLat_l_py	   malleolusLat_l_pz	  malleolusMedv_r_px	  malleolusMedv_r_py	  malleolusMedv_r_pz	  malleolusMedv_l_px	  malleolusMedv_l_py	  malleolusMedv_l_pz	     sternalnotch_px	     sternalnotch_py	     sternalnotch_pz	   xyphoidprocess_px	   xyphoidprocess_py	   xyphoidprocess_pz	             neck_px	             neck_py	             neck_pz	            toe_r_px	            toe_r_py	            toe_r_pz	            toe_l_px	            toe_l_py	            toe_l_pz	      thighwand_r_px	      thighwand_r_py	      thighwand_r_pz	      thighwand_l_px	      thighwand_l_py	      thighwand_l_pz	      upperleg1_r_px	      upperleg1_r_py	      upperleg1_r_pz	      upperleg1_l_px	      upperleg1_l_py	      upperleg1_l_pz	      upperleg2_r_px	      upperleg2_r_py	      upperleg2_r_pz	      upperleg2_l_px	      upperleg2_l_py	      upperleg2_l_pz	      shankwand_r_px	      shankwand_r_py	      shankwand_r_pz	      shankwand_l_px	      shankwand_l_py	      shankwand_l_pz	      lowerleg1_r_px	      lowerleg1_r_py	      lowerleg1_r_pz	      lowerleg1_l_px	      lowerleg1_l_py	      lowerleg1_l_pz	    subclavicle_r_px	    subclavicle_r_py	    subclavicle_r_pz	    subclavicle_l_px	    subclavicle_l_py	    subclavicle_l_pz	
          0.35000000	          1.58056880	          0.06680490	         -0.21683063	          0.39405484	         -3.98869761	         -5.77454007	          1.43000768	          0.03516776	         -0.31708708	         -4.07649753	          1.26844723	         -1.79674237	         -0.29491257	          1.62939764	          0.83021327	          2.56215592	         -0.67398450	          1.31862120	         21.40528168	          0.21507809	         -4.64192595	        -36.80442427	          7.25008313	          0.00000000	          0.00000000	         -5.27631847	          4.22163541	         -1.53465800	         -8.43081762	          9.47547031	          0.00000000	          0.00000000	         -6.51782178	          1.97941981	         -2.74577526	          1.93952979	          0.00000000	         -0.23768587	          0.00000000	         -0.00000000	         -0.00000000	          1.55747241	          0.00000000	         -0.32319836	          2.29417221	        370.26405758	          9.93400021	          0.00000000	         -0.00000000	          0.00000000	          0.00000000	         -1.39950795	          0.00000000	          1.59307585	          0.77025399	         -0.29778817	          1.58674390	          0.76853761	         -0.24073638	          1.59940746	          0.77197016	         -0.35484010	          1.68834281	          0.42561225	         -0.21650531	          1.51476913	          0.43602335	         -0.33575002	          1.63493813	          0.08635179	         -0.22316274	          1.47892008	          0.06594884	         -0.32219667	          1.62682159	          0.84309334	         -0.29245919	          1.62976371	          0.84602944	         -0.18237641	          1.62387921	          0.84015779	         -0.40254198	          1.45199064	          0.87083337	         -0.25062372	          1.45441831	          0.86792122	         -0.30440700	          1.70656013	          0.43497373	         -0.15674640	          1.53910010	          0.41247778	         -0.39432169	          1.70343418	          0.42710734	         -0.27369625	          1.53372802	          0.42638875	         -0.27906300	          1.62494009	          0.08742893	         -0.18703560	          1.47144159	          0.06564558	         -0.35792148	          1.63987419	          0.08083061	         -0.25605964	          1.47464833	          0.06914864	         -0.28873888	          1.61932195	          1.19277121	         -0.30312761	          1.62520918	          1.09079807	         -0.30614596	          1.51453047	          1.26508293	         -0.30005184	          1.71171543	          0.06391729	         -0.20452931	          1.56452363	          0.04448941	         -0.31998822	          1.77111816	          0.61137117	         -0.18802938	          1.65952962	          0.55679812	         -0.41728632	          1.70699709	          0.62600077	         -0.15304778	          1.64389020	          0.60594956	         -0.35180799	          1.71936692	          0.56860439	         -0.15639046	          1.62758269	          0.54954279	         -0.34237920	          1.76819878	          0.18510576	         -0.18196215	          1.48525140	          0.16146694	         -0.45191151	          1.69346490	          0.18156345	         -0.20838183	          1.48523034	          0.15789733	         -0.37284158	          1.62081111	          1.19261123	         -0.24669902	          1.62336581	          1.19328213	         -0.35326377	
          0.35833333	          1.60874018	          0.06172398	         -0.21588545	          0.49654414	         -3.57868984	         -3.53995359	          1.43016861	          0.03537103	         -0.31651339	         -3.99752681	          1.59990579	         -1.96324572	         -0.29495644	          1.63848191	          0.82923988	          2.47533431	         -0.68150935	          1.47190863	         21.75456064	          0.28036370	         -4.44906914	        -34.31717017	          6.72292776	          0.00000000	          0.00000000	         -6.17956387	          4.18419050	         -1.69774104	         -7.87638240	          9.74484353	          0.00000000	          0.00000000	         -6.47163607	          2.09774841	         -3.01048915	          1.94068604	          0.00000000	         -0.23711667	         -0.00000000	          0.00000000	          0.00000000	          1.56110768	          0.00000000	         -0.32293936	          4.11217332	        376.45053256	          9.84140814	          0.00000000	          0.00000000	          0.00000000	          0.00000000	         -1.51163408	          0.00000000	          1.60173287	          0.76924756	         -0.29797120	          1.59552479	          0.76758051	         -0.24090401	          1.60794068	          0.77091438	         -0.35503842	          1.69784587	          0.42489971	         -0.21680739	          1.51802727	          0.43613201	         -0.33582531	          1.66225060	          0.08333598	         -0.22326769	          1.47915212	          0.06614825	         -0.32188306	          1.63562867	          0.84205532	         -0.29274969	          1.63882853	          0.84506473	         -0.18276340	          1.63242851	          0.83904645	         -0.40273600	          1.46085601	          0.87012721	         -0.25021399	          1.46348340	          0.86708468	         -0.30371968	          1.71738812	          0.43469814	         -0.15708341	          1.54155580	          0.41231751	         -0.39432033	          1.71225548	          0.42627121	         -0.27402111	          1.53770338	          0.42567082	         -0.27944339	          1.65226928	          0.08395281	         -0.18712524	          1.47153679	          0.06589281	         -0.35757924	          1.66734892	          0.07804020	         -0.25615554	          1.47483574	          0.06935326	         -0.28839921	          1.62838368	          1.19163762	         -0.30283377	          1.63419053	          1.08966229	         -0.30593265	          1.52359308	          1.26406880	         -0.29973382	          1.74010675	          0.06378148	         -0.20449811	          1.56455558	          0.04448605	         -0.31987810	          1.78025368	          0.61105510	         -0.18930862	          1.66436344	          0.55505263	         -0.41792189	          1.71630065	          0.62536012	         -0.15376685	          1.64964539	          0.60413627	         -0.35205333	          1.72877114	          0.56807679	         -0.15709965	          1.63272127	          0.54797082	         -0.34277673	          1.79063580	          0.18838065	         -0.18232178	          1.48569779	          0.16160098	         -0.45173873	          1.71628290	          0.18099039	         -0.20838649	          1.48575792	          0.15806895	         -0.37248637	          1.62975566	          1.19142598	         -0.24642586	          1.63253170	          1.19218980	         -0.35293756	
          0.36666667	          1.63662890	          0.05734275	         -0.21515972	          0.57801770	         -3.17887064	         -1.39460128	          1.43032152	          0.03570207	         -0.31647171	         -3.89229922	          1.89266842	         -2.14787630	         -0.29519716	          1.64782263	          0.82817725	          2.36111926	         -0.67461739	          1.60743875	         22.06774820	          0.31641065	         -4.24997262	        -31.81605052	          6.15529383	          0.00000000	          0.00000000	         -7.05787649	          4.14293101	         -1.84596176	         -7.35819311	         10.03717210	          0.00000000	          0.00000000	         -6.44526260	          2.17910168	         -3.23712673	          1.94160083	          0.00000000	         -0.23652905	         -0.00000000	          0.00000000	          0.00000000	          1.56467773	          0.00000000	         -0.32265460	          6.05937284	        383.31159205	          9.83287041	          0.00000000	          0.00000000	          0.00000000	          0.00000000	         -1.60803403	          0.00000000	          1.61042926	          0.76811718	         -0.29813942	          1.60432011	          0.76647555	         -0.24106071	          1.61653823	          0.76975859	         -0.35521807	          1.70730721	          0.42388233	         -0.21708463	          1.52176834	          0.43589722	         -0.33594401	          1.68926700	          0.08082040	         -0.22335791	          1.47939202	          0.06637374	         -0.32156316	          1.64447332	          0.84089375	         -0.29298290	          1.64789241	          0.84393570	         -0.18308459	          1.64105387	          0.83785222	         -0.40288125	          1.46974501	          0.86928912	         -0.24978887	          1.47255646	          0.86619257	         -0.30300799	          1.72792737	          0.43418428	         -0.15739497	          1.54417419	          0.41217633	         -0.39433630	          1.72120597	          0.42519277	         -0.27445580	          1.54221286	          0.42461761	         -0.27980068	          1.67936841	          0.08097944	         -0.18718767	          1.47165681	          0.06616494	         -0.35723375	          1.69444905	          0.07588020	         -0.25627416	          1.47503866	          0.06955873	         -0.28805341	          1.63745715	          1.19030519	         -0.30255924	          1.64313571	          1.08832486	         -0.30572779	          1.53268361	          1.26291725	         -0.29943883	          1.76813609	          0.06406850	         -0.20460619	          1.56466697	          0.04452984	         -0.31979446	          1.78927691	          0.61039292	         -0.19047013	          1.66934637	          0.55327492	         -0.41851180	          1.72536846	          0.62438200	         -0.15447112	          1.65547106	          0.60219257	         -0.35228690	          1.73797055	          0.56726577	         -0.15780218	          1.63808920	          0.54631837	         -0.34317613	          1.81256084	          0.19191622	         -0.18280579	          1.48624535	          0.16176643	         -0.45158024	          1.73874102	          0.18085535	         -0.20842302	          1.48637095	          0.15823871	         -0.37210582	          1.63871437	          1.19004744	         -0.24619392	          1.64170732	          1.19089119	         -0.35260896	
          0.37500000	          1.66423531	          0.05350808	         -0.21450519	          0.65913884	         -2.78096151	          0.65710936	          1.43060636	          0.03588765	         -0.31616163	         -3.79414603	          2.15526542	         -2.30208688	         -0.29531319	          1.65713011	          0.82685099	          2.24755418	         -0.66268320	          1.73556957	         22.35264216	          0.34519862	         -4.06097844	        -29.31940125	          5.52531256	          0.00000000	          0.00000000	         -7.90457695	          4.12172532	         -1.98238654	         -6.88573358	         10.37500294	          0.00000000	          0.00000000	         -6.43253370	          2.23866503	         -3.44195459	          1.94232361	          0.00000000	         -0.23594370	         -0.00000000	          0.00000000	          0.00000000	          1.56817688	          0.00000000	         -0.32234088	          8.16241651	        390.65433773	          9.89570573	          0.00000000	          0.00000000	          0.00000000	          0.00000000	         -1.67807349	          0.00000000	          1.61917736	          0.76687783	         -0.29827179	          1.61315018	          0.76524189	         -0.24118428	          1.62520444	          0.76851364	         -0.35535917	          1.71660098	          0.42261697	         -0.21734082	          1.52599047	          0.43536228	         -0.33608338	          1.71585564	          0.07879388	         -0.22340985	          1.47964798	          0.06662394	         -0.32124418	          1.65336421	          0.83962355	         -0.29315228	          1.65697283	          0.84266269	         -0.18332388	          1.64975517	          0.83658465	         -0.40298073	          1.47866538	          0.86832684	         -0.24935377	          1.48161974	          0.86523876	         -0.30230255	          1.73822617	          0.43346500	         -0.15768588	          1.54698723	          0.41204311	         -0.39435498	          1.73011229	          0.42393853	         -0.27499331	          1.54728365	          0.42329834	         -0.28008029	          1.70611926	          0.07851071	         -0.18719639	          1.47181052	          0.06646297	         -0.35689253	          1.72103683	          0.07431741	         -0.25638987	          1.47525706	          0.06977311	         -0.28770933	          1.64653693	          1.18880973	         -0.30229899	          1.65205335	          1.08682258	         -0.30553142	          1.54182348	          1.26162537	         -0.29918698	          1.79567715	          0.06478883	         -0.20488702	          1.56484491	          0.04459820	         -0.31972385	          1.79819806	          0.60940278	         -0.19148747	          1.67450905	          0.55146821	         -0.41903950	          1.73427288	          0.62312039	         -0.15510851	          1.66144169	          0.60016330	         -0.35251342	          1.74699425	          0.56617210	         -0.15846836	          1.64374885	          0.54462999	         -0.34356920	          1.83391410	          0.19567744	         -0.18344525	          1.48690958	          0.16196081	         -0.45143602	          1.76075359	          0.18115654	         -0.20851662	          1.48707510	          0.15841405	         -0.37171130	          1.64769434	          1.18850936	         -0.24596879	          1.65087619	          1.18942475	         -0.35230360	
